<svg width="32" height="32" viewBox="0 0 32 32" fill="none" xmlns="http://www.w3.org/2000/svg">
<path fill-rule="evenodd" clip-rule="evenodd" d="M21.3357 28.005H10.6646C6.98169 28.005 3.99512 25.0184 3.99512 21.3355V10.6644C3.99512 6.98157 6.98169 3.995 10.6646 3.995H21.3357C25.0185 3.995 28.0051 6.98157 28.0051 10.6644V21.3355C28.0051 25.0184 25.0185 28.005 21.3357 28.005Z" stroke="white" stroke-width="2.5" stroke-linecap="round" stroke-linejoin="round"/>
<path d="M15.9986 10.6644C15.8145 10.6644 15.6652 10.8138 15.6665 10.9979C15.6665 11.182 15.8159 11.3313 16 11.3313C16.184 11.3313 16.3334 11.182 16.3334 10.9979C16.3334 10.8138 16.184 10.6644 15.9986 10.6644" stroke="white" stroke-width="2.5" stroke-linecap="round" stroke-linejoin="round"/>
<path d="M16.3329 21.581V15.245H14.999" stroke="white" stroke-width="2.5" stroke-linecap="round" stroke-linejoin="round"/>
</svg>
