<svg width="32" height="32" viewBox="0 0 32 32" fill="none" xmlns="http://www.w3.org/2000/svg">
<path d="M22.667 9.33335H28.0003" stroke="white" stroke-width="2.5" stroke-linecap="round" stroke-linejoin="round"/>
<path d="M25.3337 12V6.66669" stroke="white" stroke-width="2.5" stroke-linecap="round" stroke-linejoin="round"/>
<path d="M21.3337 25.3333V26.6667C21.3337 27.4027 20.7363 28 20.0003 28H4.00033C3.26433 28 2.66699 27.4027 2.66699 26.6667V25.3333V25.312C2.66699 21.2773 7.27766 18.656 12.0003 18.656C16.723 18.656 21.3337 21.2787 21.3337 25.312" stroke="white" stroke-width="2.5" stroke-linecap="round" stroke-linejoin="round"/>
<path d="M15.292 6.69708C17.1103 8.51536 17.1103 11.4634 15.292 13.2817C13.4738 15.0999 10.5257 15.0999 8.70746 13.2817C6.88918 11.4634 6.88918 8.51536 8.70746 6.69708C10.5257 4.8788 13.4738 4.8788 15.292 6.69708" stroke="white" stroke-width="2.5" stroke-linecap="round" stroke-linejoin="round"/>
</svg>
