<svg width="103" height="40" viewBox="0 0 103 40" fill="none" xmlns="http://www.w3.org/2000/svg">
<rect width="103" height="40" rx="20" fill="#A8A8A8" fill-opacity="0.25"/>
<path d="M28 16V24M24 20H32M38 20C38 25.5228 33.5228 30 28 30C22.4772 30 18 25.5228 18 20C18 14.4772 22.4772 10 28 10C33.5228 10 38 14.4772 38 20Z" stroke="white" stroke-width="2" stroke-linecap="round" stroke-linejoin="round"/>
<path d="M50.358 27H48.5114L53.8523 12.4545H55.6705L61.0114 27H59.1648L54.8182 14.7557H54.7045L50.358 27ZM51.0398 21.3182H58.483V22.8807H51.0398V21.3182ZM67.169 27.2273C66.2599 27.2273 65.4574 26.9976 64.7614 26.5384C64.0653 26.0743 63.5208 25.4209 63.1278 24.5781C62.7348 23.7306 62.5384 22.7292 62.5384 21.5739C62.5384 20.428 62.7348 19.4337 63.1278 18.5909C63.5208 17.7481 64.0677 17.0971 64.7685 16.6378C65.4692 16.1785 66.2789 15.9489 67.1974 15.9489C67.9077 15.9489 68.4688 16.0672 68.8807 16.304C69.2973 16.536 69.6146 16.8011 69.8324 17.0994C70.0549 17.393 70.2277 17.6345 70.3509 17.8239H70.4929V12.4545H72.169V27H70.5497V25.3239H70.3509C70.2277 25.5227 70.0526 25.7737 69.8253 26.0767C69.598 26.375 69.2737 26.6425 68.8523 26.8793C68.4309 27.1113 67.8698 27.2273 67.169 27.2273ZM67.3963 25.7216C68.0687 25.7216 68.6368 25.5464 69.1009 25.196C69.5649 24.8409 69.9176 24.3509 70.1591 23.7259C70.4006 23.0961 70.5213 22.3693 70.5213 21.5455C70.5213 20.7311 70.4029 20.0185 70.1662 19.4077C69.9295 18.7921 69.5791 18.3139 69.1151 17.973C68.651 17.6274 68.0781 17.4545 67.3963 17.4545C66.6861 17.4545 66.0942 17.6368 65.6207 18.0014C65.152 18.3613 64.7992 18.8513 64.5625 19.4716C64.3305 20.0871 64.2145 20.7784 64.2145 21.5455C64.2145 22.322 64.3329 23.0275 64.5696 23.6619C64.8111 24.2917 65.1662 24.7936 65.6349 25.1676C66.1084 25.5369 66.6955 25.7216 67.3963 25.7216ZM79.5909 27.2273C78.6818 27.2273 77.8793 26.9976 77.1832 26.5384C76.4872 26.0743 75.9427 25.4209 75.5497 24.5781C75.1567 23.7306 74.9602 22.7292 74.9602 21.5739C74.9602 20.428 75.1567 19.4337 75.5497 18.5909C75.9427 17.7481 76.4896 17.0971 77.1903 16.6378C77.8911 16.1785 78.7008 15.9489 79.6193 15.9489C80.3295 15.9489 80.8906 16.0672 81.3026 16.304C81.7192 16.536 82.0365 16.8011 82.2543 17.0994C82.4768 17.393 82.6496 17.6345 82.7727 17.8239H82.9148V12.4545H84.5909V27H82.9716V25.3239H82.7727C82.6496 25.5227 82.4744 25.7737 82.2472 26.0767C82.0199 26.375 81.6955 26.6425 81.2741 26.8793C80.8527 27.1113 80.2917 27.2273 79.5909 27.2273ZM79.8182 25.7216C80.4905 25.7216 81.0587 25.5464 81.5227 25.196C81.9867 24.8409 82.3395 24.3509 82.581 23.7259C82.8224 23.0961 82.9432 22.3693 82.9432 21.5455C82.9432 20.7311 82.8248 20.0185 82.5881 19.4077C82.3513 18.7921 82.0009 18.3139 81.5369 17.973C81.0729 17.6274 80.5 17.4545 79.8182 17.4545C79.108 17.4545 78.5161 17.6368 78.0426 18.0014C77.5739 18.3613 77.2211 18.8513 76.9844 19.4716C76.7524 20.0871 76.6364 20.7784 76.6364 21.5455C76.6364 22.322 76.7547 23.0275 76.9915 23.6619C77.233 24.2917 77.5881 24.7936 78.0568 25.1676C78.5303 25.5369 79.1174 25.7216 79.8182 25.7216Z" fill="white"/>
</svg>
