<svg width="24" height="24" viewBox="0 0 24 24" fill="none" xmlns="http://www.w3.org/2000/svg">
<path fill-rule="evenodd" clip-rule="evenodd" d="M20.8869 7.09031C20.3349 4.57118 18.0252 2.83333 15.4517 3.0009C12.8783 3.16846 10.8134 5.19114 10.5927 7.76059C10.575 8.04804 10.6848 8.3287 10.8928 8.5279L15.4737 13.1088C15.6725 13.3168 15.9529 13.4266 16.24 13.4089C17.7359 13.2786 19.1032 12.5105 19.9929 11.3008C20.8825 10.0912 21.2082 8.55709 20.8869 7.09031V7.09031Z" stroke="white" stroke-width="1.5" stroke-linecap="round" stroke-linejoin="round"/>
<path d="M15.4854 13.1235L6.86784 19.6393C6.39407 19.9959 5.73019 19.9498 5.31019 19.5312L4.46984 18.6919C4.05056 18.2717 4.0049 17.6068 4.3628 17.1332L10.8775 8.51562" stroke="white" stroke-width="1.5" stroke-linecap="round" stroke-linejoin="round"/>
<path d="M4.88888 19.1108L2.99609 21.0036" stroke="white" stroke-width="1.5" stroke-linecap="round" stroke-linejoin="round"/>
</svg>
