<svg width="32" height="32" viewBox="0 0 32 32" fill="none" xmlns="http://www.w3.org/2000/svg">
<path d="M15.995 23.3359C15.6282 23.3359 15.3281 23.6361 15.3321 24.0029C15.3321 24.3697 15.6322 24.6698 15.999 24.6698C16.3658 24.6698 16.666 24.3697 16.666 24.0029C16.666 23.6361 16.3658 23.3359 15.995 23.3359" stroke="#A8A8A8" stroke-width="1.5" stroke-linecap="round" stroke-linejoin="round"/>
<path d="M15.995 15.333C15.6282 15.333 15.3281 15.6331 15.3321 16C15.3321 16.3668 15.6322 16.6669 15.999 16.6669C16.3658 16.6669 16.666 16.3668 16.666 16C16.666 15.6331 16.3658 15.333 15.995 15.333" stroke="#A8A8A8" stroke-width="1.5" stroke-linecap="round" stroke-linejoin="round"/>
<path d="M15.995 7.3291C15.6282 7.3291 15.3281 7.62923 15.3321 7.99605C15.3321 8.36287 15.6322 8.66299 15.999 8.66299C16.3658 8.66299 16.666 8.36287 16.666 7.99605C16.666 7.62923 16.3658 7.3291 15.995 7.3291" stroke="#A8A8A8" stroke-width="1.5" stroke-linecap="round" stroke-linejoin="round"/>
</svg>
