<svg width="32" height="32" viewBox="0 0 32 32" fill="none" xmlns="http://www.w3.org/2000/svg">
<path d="M15.996 23.3364C15.6292 23.3364 15.329 23.6366 15.333 24.0034C15.333 24.3702 15.6332 24.6703 16 24.6703C16.3668 24.6703 16.6669 24.3702 16.6669 24.0034C16.6669 23.6366 16.3668 23.3364 15.996 23.3364" stroke="#A8A8A8" stroke-width="1.5" stroke-linecap="round" stroke-linejoin="round"/>
<path d="M15.996 15.333C15.6292 15.333 15.329 15.6331 15.333 16C15.333 16.3668 15.6332 16.6669 16 16.6669C16.3668 16.6669 16.6669 16.3668 16.6669 16C16.6669 15.6331 16.3668 15.333 15.996 15.333" stroke="#A8A8A8" stroke-width="1.5" stroke-linecap="round" stroke-linejoin="round"/>
<path d="M15.996 7.32983C15.6292 7.32983 15.329 7.62996 15.333 7.99678C15.333 8.3636 15.6332 8.66372 16 8.66372C16.3668 8.66372 16.6669 8.3636 16.6669 7.99678C16.6669 7.62996 16.3668 7.32983 15.996 7.32983" stroke="#A8A8A8" stroke-width="1.5" stroke-linecap="round" stroke-linejoin="round"/>
</svg>
