<svg width="155" height="40" viewBox="0 0 155 40" fill="none" xmlns="http://www.w3.org/2000/svg">
<rect width="155" height="40" rx="20" fill="#A8A8A8" fill-opacity="0.25"/>
<path d="M32.0014 23.001V23.7513C32.0014 24.1657 31.6655 24.5016 31.2511 24.5016H24.7484C24.334 24.5016 23.998 24.1657 23.998 23.7513V23.001" stroke="white" stroke-width="2" stroke-linecap="round" stroke-linejoin="round"/>
<circle cx="27.9998" cy="19.9998" r="9.00375" stroke="white" stroke-width="2" stroke-linecap="round" stroke-linejoin="round"/>
<path d="M30.7474 18.75L27.9963 21.5011L25.2451 18.75" stroke="white" stroke-width="2" stroke-linecap="round" stroke-linejoin="round"/>
<path d="M27.9963 14.998V21.5008" stroke="white" stroke-width="2" stroke-linecap="round" stroke-linejoin="round"/>
<path d="M50.25 27H45.7614V12.4545H50.4489C51.8598 12.4545 53.0672 12.7457 54.071 13.3281C55.0748 13.9058 55.8442 14.7367 56.3793 15.821C56.9143 16.9006 57.1818 18.1932 57.1818 19.6989C57.1818 21.214 56.9119 22.5185 56.3722 23.6122C55.8324 24.7012 55.0464 25.5393 54.0142 26.1264C52.982 26.7088 51.7273 27 50.25 27ZM47.5227 25.4375H50.1364C51.339 25.4375 52.3357 25.2055 53.1264 24.7415C53.9171 24.2775 54.5066 23.617 54.8949 22.7599C55.2831 21.9029 55.4773 20.8826 55.4773 19.6989C55.4773 18.5246 55.2855 17.5137 54.902 16.6662C54.5185 15.8139 53.9455 15.1605 53.1832 14.706C52.4209 14.2467 51.4716 14.017 50.3352 14.017H47.5227V25.4375ZM64.3409 27.2273C63.3561 27.2273 62.492 26.9929 61.7486 26.5241C61.0099 26.0554 60.4323 25.3996 60.0156 24.5568C59.6037 23.714 59.3977 22.7292 59.3977 21.6023C59.3977 20.4659 59.6037 19.474 60.0156 18.6264C60.4323 17.7789 61.0099 17.1207 61.7486 16.652C62.492 16.1832 63.3561 15.9489 64.3409 15.9489C65.3258 15.9489 66.1875 16.1832 66.9261 16.652C67.6695 17.1207 68.2472 17.7789 68.6591 18.6264C69.0758 19.474 69.2841 20.4659 69.2841 21.6023C69.2841 22.7292 69.0758 23.714 68.6591 24.5568C68.2472 25.3996 67.6695 26.0554 66.9261 26.5241C66.1875 26.9929 65.3258 27.2273 64.3409 27.2273ZM64.3409 25.7216C65.089 25.7216 65.7045 25.5298 66.1875 25.1463C66.6705 24.7628 67.0279 24.2585 67.2599 23.6335C67.492 23.0085 67.608 22.3314 67.608 21.6023C67.608 20.8731 67.492 20.1937 67.2599 19.5639C67.0279 18.9342 66.6705 18.4252 66.1875 18.0369C65.7045 17.6487 65.089 17.4545 64.3409 17.4545C63.5928 17.4545 62.9773 17.6487 62.4943 18.0369C62.0114 18.4252 61.6539 18.9342 61.4219 19.5639C61.1899 20.1937 61.0739 20.8731 61.0739 21.6023C61.0739 22.3314 61.1899 23.0085 61.4219 23.6335C61.6539 24.2585 62.0114 24.7628 62.4943 25.1463C62.9773 25.5298 63.5928 25.7216 64.3409 25.7216ZM73.9432 27L70.6193 16.0909H72.3807L74.7386 24.4432H74.8523L77.1818 16.0909H78.9716L81.2727 24.4148H81.3864L83.7443 16.0909H85.5057L82.1818 27H80.5341L78.1477 18.6193H77.9773L75.5909 27H73.9432ZM89.3977 20.4375V27H87.7216V16.0909H89.3409V17.7955H89.483C89.7386 17.2415 90.1269 16.7964 90.6477 16.4602C91.1686 16.1193 91.8409 15.9489 92.6648 15.9489C93.4034 15.9489 94.0497 16.1004 94.6037 16.4034C95.1577 16.7017 95.5885 17.1562 95.8963 17.767C96.2041 18.3731 96.358 19.1402 96.358 20.0682V27H94.6818V20.1818C94.6818 19.3248 94.4593 18.6572 94.0142 18.179C93.5691 17.696 92.9583 17.4545 92.1818 17.4545C91.6468 17.4545 91.1686 17.5705 90.7472 17.8026C90.3305 18.0346 90.0014 18.3731 89.7599 18.8182C89.5185 19.2633 89.3977 19.803 89.3977 20.4375ZM101.097 12.4545V27H99.4208V12.4545H101.097ZM108.599 27.2273C107.614 27.2273 106.75 26.9929 106.006 26.5241C105.268 26.0554 104.69 25.3996 104.273 24.5568C103.862 23.714 103.656 22.7292 103.656 21.6023C103.656 20.4659 103.862 19.474 104.273 18.6264C104.69 17.7789 105.268 17.1207 106.006 16.652C106.75 16.1832 107.614 15.9489 108.599 15.9489C109.584 15.9489 110.445 16.1832 111.184 16.652C111.927 17.1207 112.505 17.7789 112.917 18.6264C113.334 19.474 113.542 20.4659 113.542 21.6023C113.542 22.7292 113.334 23.714 112.917 24.5568C112.505 25.3996 111.927 26.0554 111.184 26.5241C110.445 26.9929 109.584 27.2273 108.599 27.2273ZM108.599 25.7216C109.347 25.7216 109.962 25.5298 110.445 25.1463C110.928 24.7628 111.286 24.2585 111.518 23.6335C111.75 23.0085 111.866 22.3314 111.866 21.6023C111.866 20.8731 111.75 20.1937 111.518 19.5639C111.286 18.9342 110.928 18.4252 110.445 18.0369C109.962 17.6487 109.347 17.4545 108.599 17.4545C107.851 17.4545 107.235 17.6487 106.752 18.0369C106.269 18.4252 105.912 18.9342 105.68 19.5639C105.448 20.1937 105.332 20.8731 105.332 21.6023C105.332 22.3314 105.448 23.0085 105.68 23.6335C105.912 24.2585 106.269 24.7628 106.752 25.1463C107.235 25.5298 107.851 25.7216 108.599 25.7216ZM119.311 27.2557C118.619 27.2557 117.992 27.1255 117.429 26.8651C116.865 26.5999 116.418 26.2188 116.086 25.7216C115.755 25.2197 115.589 24.6136 115.589 23.9034C115.589 23.2784 115.712 22.7718 115.958 22.3835C116.205 21.9905 116.534 21.6828 116.946 21.4602C117.358 21.2377 117.812 21.072 118.309 20.9631C118.811 20.8494 119.315 20.7595 119.822 20.6932C120.485 20.608 121.022 20.544 121.434 20.5014C121.851 20.4541 122.154 20.3759 122.343 20.267C122.538 20.1581 122.635 19.9687 122.635 19.6989V19.642C122.635 18.9413 122.443 18.3968 122.059 18.0085C121.681 17.6203 121.105 17.4261 120.333 17.4261C119.533 17.4261 118.906 17.6013 118.451 17.9517C117.997 18.3021 117.677 18.6761 117.493 19.0739L115.902 18.5057C116.186 17.8428 116.565 17.3267 117.038 16.9574C117.516 16.5833 118.037 16.3229 118.6 16.1761C119.169 16.0246 119.727 15.9489 120.277 15.9489C120.627 15.9489 121.029 15.9915 121.484 16.0767C121.943 16.1572 122.386 16.3253 122.812 16.581C123.243 16.8366 123.6 17.2225 123.885 17.7386C124.169 18.2547 124.311 18.946 124.311 19.8125V27H122.635V25.5227H122.549C122.436 25.7595 122.246 26.0128 121.981 26.2827C121.716 26.5526 121.363 26.7822 120.923 26.9716C120.483 27.161 119.945 27.2557 119.311 27.2557ZM119.566 25.75C120.229 25.75 120.788 25.6198 121.243 25.3594C121.702 25.099 122.047 24.7628 122.279 24.3509C122.516 23.9389 122.635 23.5057 122.635 23.0511V21.517C122.564 21.6023 122.407 21.6804 122.166 21.7514C121.929 21.8177 121.654 21.8769 121.342 21.929C121.034 21.9763 120.734 22.0189 120.44 22.0568C120.151 22.09 119.917 22.1184 119.737 22.142C119.301 22.1989 118.894 22.2912 118.515 22.419C118.141 22.5421 117.838 22.7292 117.606 22.9801C117.379 23.2263 117.265 23.5625 117.265 23.9886C117.265 24.571 117.481 25.0114 117.912 25.3097C118.347 25.6032 118.899 25.75 119.566 25.75ZM131.489 27.2273C130.58 27.2273 129.778 26.9976 129.082 26.5384C128.386 26.0743 127.841 25.4209 127.448 24.5781C127.055 23.7306 126.859 22.7292 126.859 21.5739C126.859 20.428 127.055 19.4337 127.448 18.5909C127.841 17.7481 128.388 17.0971 129.089 16.6378C129.79 16.1785 130.599 15.9489 131.518 15.9489C132.228 15.9489 132.789 16.0672 133.201 16.304C133.618 16.536 133.935 16.8011 134.153 17.0994C134.375 17.393 134.548 17.6345 134.671 17.8239H134.813V12.4545H136.489V27H134.87V25.3239H134.671C134.548 25.5227 134.373 25.7737 134.146 26.0767C133.918 26.375 133.594 26.6425 133.173 26.8793C132.751 27.1113 132.19 27.2273 131.489 27.2273ZM131.717 25.7216C132.389 25.7216 132.957 25.5464 133.421 25.196C133.885 24.8409 134.238 24.3509 134.479 23.7259C134.721 23.0961 134.842 22.3693 134.842 21.5455C134.842 20.7311 134.723 20.0185 134.487 19.4077C134.25 18.7921 133.899 18.3139 133.435 17.973C132.971 17.6274 132.398 17.4545 131.717 17.4545C131.006 17.4545 130.415 17.6368 129.941 18.0014C129.472 18.3613 129.12 18.8513 128.883 19.4716C128.651 20.0871 128.535 20.7784 128.535 21.5455C128.535 22.322 128.653 23.0275 128.89 23.6619C129.131 24.2917 129.487 24.7936 129.955 25.1676C130.429 25.5369 131.016 25.7216 131.717 25.7216Z" fill="white"/>
</svg>
