<svg width="32" height="32" viewBox="0 0 32 32" fill="none" xmlns="http://www.w3.org/2000/svg">
<path fill-rule="evenodd" clip-rule="evenodd" d="M12.5884 10.0773L17.7644 13.1386C18.4191 13.5253 18.4191 14.4733 17.7644 14.86L12.5884 17.9213C11.9218 18.316 11.0791 17.8346 11.0791 17.06V10.9386C11.0791 10.164 11.9218 9.68264 12.5884 10.0773V10.0773Z" stroke="white" stroke-width="1.5" stroke-linecap="round" stroke-linejoin="round"/>
<path fill-rule="evenodd" clip-rule="evenodd" d="M21.7773 24H6.22267C4.99467 24 4 23.0053 4 21.7773V6.22267C4 4.99467 4.99467 4 6.22267 4H21.7787C23.0053 4 24 4.99467 24 6.22267V21.7787C24 23.0053 23.0053 24 21.7773 24V24Z" stroke="white" stroke-width="1.5" stroke-linecap="round" stroke-linejoin="round"/>
<path d="M8 24V25.3333V25.3333C8 26.8067 9.19333 28 10.6667 28H25.3333C26.8067 28 28 26.8067 28 25.3333V10.6667C28 9.19333 26.8067 8 25.3333 8H24" stroke="white" stroke-width="1.5" stroke-linecap="round" stroke-linejoin="round"/>
</svg>
