<svg width="80" height="80" viewBox="0 0 80 80" fill="none" xmlns="http://www.w3.org/2000/svg">
<path d="M28.333 59.2698V26.5464C28.333 25.1631 29.1863 23.9231 30.4797 23.4331L58.813 12.6398C60.9963 11.8064 63.333 13.4198 63.333 15.7531V52.5831" stroke="#7F00FF" stroke-width="5" stroke-linecap="round" stroke-linejoin="round"/>
<path d="M60.8929 46.6908C64.1472 49.9451 64.1472 55.2215 60.8929 58.4759C57.6385 61.7302 52.3621 61.7302 49.1078 58.4759C45.8534 55.2215 45.8534 49.9451 49.1078 46.6908C52.3621 43.4364 57.6385 43.4364 60.8929 46.6908" stroke="#7F00FF" stroke-width="5" stroke-linecap="round" stroke-linejoin="round"/>
<path d="M25.8929 53.3573C29.1472 56.6117 29.1472 61.888 25.8929 65.1424C22.6385 68.3968 17.3621 68.3968 14.1078 65.1424C10.8534 61.888 10.8534 56.6116 14.1078 53.3573C17.3621 50.1029 22.6385 50.1029 25.8929 53.3573" stroke="#7F00FF" stroke-width="5" stroke-linecap="round" stroke-linejoin="round"/>
</svg>
