<svg xmlns="http://www.w3.org/2000/svg" width="102" height="102" viewBox="0 0 102 102" fill="none">
  <path d="M36.125 75.5692V33.8469C36.125 32.0832 37.213 30.5022 38.862 29.8774L74.987 16.1159C77.7708 15.0534 80.75 17.1104 80.75 20.0854V67.0437" stroke="#7F00FF" stroke-width="7" stroke-linecap="round" stroke-linejoin="round"/>
  <path d="M77.638 59.5304C81.7873 63.6798 81.7873 70.4071 77.638 74.5565C73.4887 78.7058 66.7613 78.7058 62.612 74.5565C58.4627 70.4071 58.4627 63.6798 62.612 59.5304C66.7613 55.3811 73.4887 55.3811 77.638 59.5304" stroke="#7F00FF" stroke-width="7" stroke-linecap="round" stroke-linejoin="round"/>
  <path d="M33.013 68.0304C37.1623 72.1798 37.1623 78.9071 33.013 83.0565C28.8637 87.2058 22.1363 87.2058 17.987 83.0565C13.8377 78.9071 13.8377 72.1798 17.987 68.0304C22.1363 63.8811 28.8637 63.8811 33.013 68.0304" stroke="#7F00FF" stroke-width="7" stroke-linecap="round" stroke-linejoin="round"/>
</svg>