<svg width="33" height="32" viewBox="0 0 33 32" fill="none" xmlns="http://www.w3.org/2000/svg">
<path d="M26.9868 6.18555V10.9002H22.2734H26.9868" stroke="white" stroke-width="1.5" stroke-linecap="round" stroke-linejoin="round"/>
<path d="M26.3719 10.8997C24.5626 7.58367 21.0453 5.33301 17.0026 5.33301C11.1119 5.33301 6.33594 10.109 6.33594 15.9997C6.33594 21.8903 11.1119 26.6663 17.0026 26.6663C22.8933 26.6663 27.6693 21.8903 27.6693 15.9997" stroke="white" stroke-width="1.5" stroke-linecap="round" stroke-linejoin="round"/>
<path d="M16.2358 21.1392C15.6525 21.1392 15.1271 21.0232 14.6598 20.7912C14.1925 20.5592 13.8179 20.241 13.5362 19.8366C13.2545 19.4323 13.1004 18.9716 13.0739 18.4545H14.267C14.3134 18.9152 14.5223 19.2964 14.8935 19.598C15.268 19.8963 15.7154 20.0455 16.2358 20.0455C16.6534 20.0455 17.0246 19.9477 17.3494 19.7521C17.6776 19.5566 17.9344 19.2881 18.12 18.9467C18.3089 18.602 18.4034 18.2126 18.4034 17.7784C18.4034 17.3343 18.3056 16.9382 18.1101 16.5902C17.9179 16.2389 17.6527 15.9621 17.3146 15.7599C16.9766 15.5578 16.5904 15.455 16.1562 15.4517C15.8447 15.4484 15.5249 15.4964 15.1967 15.5959C14.8686 15.692 14.5985 15.8163 14.3864 15.9688L13.233 15.8295L13.8494 10.8182H19.1392V11.9119H14.8835L14.5256 14.9148H14.5852C14.794 14.7491 15.0559 14.6115 15.3707 14.5021C15.6856 14.3928 16.0137 14.3381 16.3551 14.3381C16.9782 14.3381 17.5334 14.4872 18.0206 14.7855C18.5111 15.0805 18.8956 15.4848 19.174 15.9986C19.4557 16.5123 19.5966 17.099 19.5966 17.7585C19.5966 18.4081 19.4508 18.9882 19.1591 19.4986C18.8707 20.0057 18.473 20.4067 17.9659 20.7017C17.4588 20.9934 16.8821 21.1392 16.2358 21.1392Z" fill="white"/>
</svg>
