<svg width="32" height="32" viewBox="0 0 32 32" fill="none" xmlns="http://www.w3.org/2000/svg">
<circle cx="15.9999" cy="16" r="2.00083" stroke="white" stroke-width="2.5" stroke-linecap="round" stroke-linejoin="round"/>
<path fill-rule="evenodd" clip-rule="evenodd" d="M23.0032 17.7327L22.0028 18.3103C21.3838 18.6677 21.0024 19.3282 21.0024 20.043V21.1981C21.0024 21.913 20.621 22.5735 20.002 22.9309C19.3829 23.2883 18.6202 23.2883 18.0011 22.9309L17.0007 22.3533C16.3817 21.9959 15.619 21.9959 14.9999 22.3533L13.9995 22.9309C13.3804 23.2883 12.6177 23.2883 11.9987 22.9309C11.3796 22.5735 10.9983 21.913 10.9982 21.1981V20.043C10.9982 19.3282 10.6169 18.6677 9.99782 18.3103L8.9974 17.7327C8.37839 17.3753 7.99707 16.7148 7.99707 16C7.99707 15.2852 8.37839 14.6247 8.9974 14.2673L9.99782 13.6897C10.6169 13.3323 10.9982 12.6718 10.9982 11.957V10.8018C10.9983 10.087 11.3796 9.42648 11.9987 9.06907C12.6177 8.71167 13.3804 8.71168 13.9995 9.06909L14.9999 9.64666C15.619 10.0041 16.3817 10.0041 17.0007 9.64666L18.0011 9.06909C18.6202 8.71168 19.3829 8.71167 20.002 9.06907C20.621 9.42648 21.0024 10.087 21.0024 10.8018V11.957C21.0024 12.6718 21.3838 13.3323 22.0028 13.6897L23.0032 14.2673C23.6222 14.6247 24.0036 15.2852 24.0036 16C24.0036 16.7148 23.6222 17.3753 23.0032 17.7327Z" stroke="white" stroke-width="2.5" stroke-linecap="round" stroke-linejoin="round"/>
<circle cx="16.0001" cy="15.9999" r="12.6719" stroke="white" stroke-width="2.5" stroke-linecap="round" stroke-linejoin="round"/>
</svg>
