<svg width="56" height="56" viewBox="0 0 56 56" fill="none" xmlns="http://www.w3.org/2000/svg">
<path d="M27.9923 40.8389C27.3503 40.8389 26.8251 41.3641 26.8321 42.006C26.8321 42.648 27.3573 43.1732 27.9993 43.1732C28.6412 43.1732 29.1664 42.648 29.1664 42.006C29.1664 41.3641 28.6412 40.8389 27.9923 40.8389" stroke="white" stroke-width="1.5" stroke-linecap="round" stroke-linejoin="round"/>
<path d="M27.9923 26.833C27.3503 26.833 26.8251 27.3582 26.8321 28.0002C26.8321 28.6421 27.3573 29.1673 27.9993 29.1673C28.6412 29.1673 29.1664 28.6421 29.1664 28.0002C29.1664 27.3582 28.6412 26.833 27.9923 26.833" stroke="white" stroke-width="1.5" stroke-linecap="round" stroke-linejoin="round"/>
<path d="M27.9923 12.8271C27.3503 12.8271 26.8251 13.3524 26.8321 13.9943C26.8321 14.6362 27.3573 15.1615 27.9993 15.1615C28.6412 15.1615 29.1664 14.6362 29.1664 13.9943C29.1664 13.3524 28.6412 12.8271 27.9923 12.8271" stroke="white" stroke-width="1.5" stroke-linecap="round" stroke-linejoin="round"/>
</svg>
