<svg width="41" height="41" viewBox="0 0 41 41" fill="none" xmlns="http://www.w3.org/2000/svg">
<path fill-rule="evenodd" clip-rule="evenodd" d="M21.3484 10.457L20.5 11.3185L19.6514 10.4569C18.1042 8.8851 15.991 8 13.7855 8C11.5801 8 9.46686 8.8851 7.91971 10.4569V10.4569C4.69343 13.7723 4.69343 19.0537 7.91971 22.3692L16.9075 31.4952C17.855 32.4578 19.1493 32.9999 20.5 32.9999C21.8508 32.9999 23.145 32.4578 24.0926 31.4952L33.0803 22.3693C36.3066 19.0539 36.3066 13.7724 33.0803 10.457V10.457C31.5331 8.8852 29.4199 8.00006 27.2144 8.00005C25.0089 8.00005 22.8956 8.88518 21.3484 10.457Z" stroke="white" stroke-width="2.5" stroke-linecap="round" stroke-linejoin="round"/>
</svg>
