<svg width="80" height="81" viewBox="0 0 80 81" fill="none" xmlns="http://www.w3.org/2000/svg">
<path d="M28.334 59.7698V27.0464C28.334 25.6631 29.1873 24.4231 30.4807 23.9331L58.814 13.1398C60.9973 12.3064 63.334 13.9198 63.334 16.2531V53.0831" stroke="#7F00FF" stroke-width="5" stroke-linecap="round" stroke-linejoin="round"/>
<path d="M60.8919 47.1908C64.1463 50.4451 64.1463 55.7215 60.8919 58.9759C57.6375 62.2302 52.3612 62.2302 49.1068 58.9759C45.8524 55.7215 45.8524 50.4451 49.1068 47.1908C52.3612 43.9364 57.6375 43.9364 60.8919 47.1908" stroke="#7F00FF" stroke-width="5" stroke-linecap="round" stroke-linejoin="round"/>
<path d="M25.8919 53.8573C29.1463 57.1117 29.1463 62.388 25.8919 65.6424C22.6375 68.8968 17.3612 68.8968 14.1068 65.6424C10.8524 62.388 10.8524 57.1116 14.1068 53.8573C17.3612 50.6029 22.6375 50.6029 25.8919 53.8573" stroke="#7F00FF" stroke-width="5" stroke-linecap="round" stroke-linejoin="round"/>
</svg>
