<svg width="56" height="57" viewBox="0 0 56 57" fill="none" xmlns="http://www.w3.org/2000/svg">
<path fill-rule="evenodd" clip-rule="evenodd" d="M22.0281 18.1353L31.0861 23.4926C32.2317 24.1693 32.2317 25.8283 31.0861 26.5049L22.0281 31.8623C20.8614 32.5529 19.3867 31.7106 19.3867 30.3549V19.6426C19.3867 18.2869 20.8614 17.4446 22.0281 18.1353V18.1353Z" stroke="white" stroke-width="1.5" stroke-linecap="round" stroke-linejoin="round"/>
<path fill-rule="evenodd" clip-rule="evenodd" d="M38.1103 42.5H10.8897C8.74067 42.5 7 40.7593 7 38.6103V11.3897C7 9.24067 8.74067 7.5 10.8897 7.5H38.1127C40.2593 7.5 42 9.24067 42 11.3897V38.6127C42 40.7593 40.2593 42.5 38.1103 42.5V42.5Z" stroke="white" stroke-width="1.5" stroke-linecap="round" stroke-linejoin="round"/>
<path d="M14 42.5V44.8333V44.8333C14 47.4117 16.0883 49.5 18.6667 49.5H44.3333C46.9117 49.5 49 47.4117 49 44.8333V19.1667C49 16.5883 46.9117 14.5 44.3333 14.5H42" stroke="white" stroke-width="1.5" stroke-linecap="round" stroke-linejoin="round"/>
</svg>
